<svg xmlns="http://www.w3.org/2000/svg" version="1.1" xmlns:xlink="http://www.w3.org/1999/xlink" xmlns:svgjs="http://svgjs.dev/svgjs" width="1000" height="1000" viewBox="0 0 1000 1000"><rect width="1000" height="1000" fill="#fafafa"></rect><g transform="matrix(0.7,0,0,0.7,149.57575757575756,282.1265587044535)"><svg viewBox="0 0 396 247" data-background-color="#fafafa" preserveAspectRatio="xMidYMid meet" height="623" width="1000" xmlns="http://www.w3.org/2000/svg" xmlns:xlink="http://www.w3.org/1999/xlink"><g id="tight-bounds" transform="matrix(1,0,0,1,0.2400000000000091,-0.09999999999999432)"><svg viewBox="0 0 395.52 247.2" height="247.2" width="395.52"><g><svg></svg></g><g><svg viewBox="0 0 395.52 247.2" height="247.2" width="395.52"><mask id="5d31c0c7-3e27-4421-9088-664cf459a4e1"><rect width="395.52" height="247.2" fill="white"></rect><g transform="matrix(1,0,0,1,0,96.34866517009151)" id="clone"><svg viewBox="0 0 395.52 54.502669659816966" height="54.502669659816966" width="395.52"><g><svg viewBox="0 0 395.52 54.502669659816966" height="54.502669659816966" width="395.52"><g><svg viewBox="0 0 395.52 54.502669659816966" height="54.502669659816966" width="395.52"><g><svg viewBox="0 0 395.52 54.502669659816966" height="54.502669659816966" width="395.52"><g id="SvgjsG1178"><svg viewBox="0 0 395.52 54.502669659816966" height="54.502669659816966" width="395.52" id="SvgjsSvg1177"><g><svg viewBox="0 0 395.52 54.502669659816966" height="54.502669659816966" width="395.52"><g transform="matrix(1,0,0,1,0,0)"><svg width="395.52" viewBox="-0.5499999523162842 -37.54999923706055 290.5299987792969 40.89999771118164" height="54.502669659816966" data-palette-color="#130912"><path d="M24.6-25.6L24.6-7.5Q24.6-4.65 23.9-2.98 23.2-1.3 21.98-0.65 20.75 0 18.75 0L18.75 0Q15.8 0 14.48-1.58 13.15-3.15 13.1-7.15L13.1-7.15 13-25.6 8.75-25.6Q5.6-25.6 4.03-26.6 2.45-27.6 2.45-30.15L2.45-30.15Q2.45-31.7 3.08-32.6 3.7-33.5 4.95-33.88 6.2-34.25 8.3-34.25L8.3-34.25 29.7-34.25Q32.5-34.25 33.75-33.25 35-32.25 35-29.8L35-29.8Q35-28.15 34.27-27.23 33.55-26.3 32.35-25.95 31.15-25.6 29.25-25.6L29.25-25.6 24.6-25.6ZM51.8-20.3L60.4-20.3Q63.05-20.3 64.12-19.45 65.2-18.6 65.2-16.55L65.2-16.55Q65.2-14.85 63.92-14.13 62.65-13.4 59.95-13.4L59.95-13.4 51.85-13.4 51.85-8.1 62.7-8.05Q65.5-8.05 66.72-7.23 67.95-6.4 67.95-4.3L67.95-4.3Q67.95-1.9 66.52-0.95 65.1 0 62.2 0L62.2 0 46 0Q43.05 0 41.67-1.58 40.3-3.15 40.3-7.15L40.3-7.15 40.3-28.25Q40.3-34.25 46-34.25L46-34.25 62.2-34.25Q65.1-34.25 66.52-33.35 67.95-32.45 67.95-30.1L67.95-30.1Q67.95-27.9 66.72-27.03 65.5-26.15 62.7-26.15L62.7-26.15 51.8-26.15 51.8-20.3ZM92.05-24.85L92.05-24.85Q92.05-25.9 91.17-26.65 90.3-27.4 89.1-27.4L89.1-27.4Q86.7-27.4 85.15-24.68 83.6-21.95 83.6-18.5L83.6-18.5Q83.6-15.85 84.6-13.73 85.6-11.6 87.5-10.35 89.4-9.1 91.9-9.1L91.9-9.1Q93.75-9.1 95.45-9.83 97.15-10.55 98.2-11.43 99.25-12.3 100.37-13.03 101.5-13.75 102.35-13.75L102.35-13.75Q103.45-13.75 104.25-12.88 105.05-12 105.05-11.05L105.05-11.05Q105.05-10 104.42-8.6 103.8-7.2 102.45-5.63 101.1-4.05 99.3-2.73 97.5-1.4 94.82-0.53 92.15 0.35 89.2 0.35L89.2 0.35Q85.3 0.35 81.97-0.83 78.65-2 76.2-4.17 73.75-6.35 72.35-9.65 70.95-12.95 70.95-17.05L70.95-17.05Q70.95-25.15 75.8-29.85 80.65-34.55 88.5-34.55L88.5-34.55Q92.5-34.55 95.9-33.2 99.3-31.85 101.3-29.45 103.3-27.05 103.3-24.2L103.3-24.2Q103.3-20.9 101.1-18.23 98.9-15.55 95.4-15.55L95.4-15.55Q93.4-15.55 91.8-16.65 90.2-17.75 90.2-19.8L90.2-19.8Q90.2-20.75 91.12-22.45 92.05-24.15 92.05-24.85ZM143.69-28.7L143.69-7.5Q143.69-3.45 142.24-1.73 140.79 0 137.84 0L137.84 0Q134.94 0 133.59-1.58 132.24-3.15 132.24-7.15L132.24-7.15 132.19-12.8 121.99-12.8 121.99-7.5Q121.99-3.4 120.59-1.7 119.19 0 116.14 0L116.14 0Q113.24 0 111.89-1.58 110.54-3.15 110.54-7.15L110.54-7.15 110.39-28.25Q110.39-31.35 111.97-32.8 113.54-34.25 116.14-34.25L116.14-34.25Q119.14-34.25 120.57-33.15 121.99-32.05 121.99-28.7L121.99-28.7 121.99-20.3 132.14-20.3 132.14-28.25Q132.14-30.35 132.92-31.73 133.69-33.1 134.92-33.68 136.14-34.25 137.84-34.25L137.84-34.25Q140.74-34.25 142.22-33.15 143.69-32.05 143.69-28.7L143.69-28.7ZM168.79-24.6L168.79-24.6Q168.79-26.7 167.17-27.48 165.54-28.25 161.74-28.25L161.74-28.25 161.74-20.6Q164.09-20.6 165.57-20.95 167.04-21.3 167.92-22.18 168.79-23.05 168.79-24.6ZM169.44-11.25L169.44-11.25Q169.44-12.9 168.59-13.8 167.74-14.7 166.14-15.08 164.54-15.45 161.74-15.45L161.74-15.45 161.74-6.8Q165.64-6.8 167.54-7.78 169.44-8.75 169.44-11.25ZM175.59-17.8L175.59-17.8Q180.24-15.05 180.24-10.45L180.24-10.45Q180.24-8.45 179.47-6.63 178.69-4.8 177.17-3.3 175.64-1.8 173.14-0.93 170.64-0.05 167.49-0.05L167.49-0.05 155.89-0.05Q152.84-0.05 151.52-1.6 150.19-3.15 150.19-7.15L150.19-7.15 150.19-28.3Q150.19-30 150.79-31.3 151.39-32.6 152.72-33.4 154.04-34.2 155.89-34.2L155.89-34.2 167.34-34.2Q172.34-34.15 175.67-31.48 178.99-28.8 178.99-24.6L178.99-24.6Q178.99-23.25 178.77-22.23 178.54-21.2 178.09-20.4 177.64-19.6 177.04-19 176.44-18.4 175.59-17.8ZM205.84 0L192.79 0Q190.49-0.05 189.09-0.73 187.69-1.4 186.99-2.95 186.29-4.5 186.29-7.1L186.29-7.1 186.29-28.25Q186.29-30.9 187.84-32.58 189.39-34.25 191.94-34.25L191.94-34.25Q194.94-34.25 196.36-33.15 197.79-32.05 197.79-28.7L197.79-28.7 197.79-8.65 206.34-8.65Q209.24-8.65 210.41-7.8 211.59-6.95 211.59-4.3L211.59-4.3Q211.59-1.6 210.24-0.8 208.89 0 205.84 0L205.84 0ZM230.19-7L230.19-7Q231.89-7 233.11-8.5 234.34-10 234.86-12.2 235.39-14.4 235.39-16.9L235.39-16.9Q235.39-19.45 234.84-21.73 234.29-24 233.06-25.6 231.84-27.2 230.19-27.2L230.19-27.2Q228.59-27.2 227.39-25.6 226.19-24 225.59-21.7 224.99-19.4 224.99-16.9L224.99-16.9Q224.99-14.4 225.56-12.2 226.14-10 227.36-8.5 228.59-7 230.19-7ZM239.04-1.68Q235.09 0.3 230.16 0.3 225.24 0.3 221.31-1.68 217.39-3.65 215.04-7.6 212.69-11.55 212.69-16.9L212.69-16.9Q212.69-25 217.56-29.78 222.44-34.55 230.19-34.55 237.94-34.55 242.84-29.78 247.74-25 247.74-16.9L247.74-16.9Q247.74-11.55 245.36-7.6 242.99-3.65 239.04-1.68ZM272.93-25.85L272.93-25.85Q272.93-27.4 270.88-27.4L270.88-27.4Q268.78-27.4 267.28-25.05 265.78-22.7 265.78-17.2L265.78-17.2Q265.78-12.1 267.51-9.78 269.23-7.45 271.58-7.45L271.58-7.45Q272.33-7.45 272.96-7.75 273.58-8.05 273.98-8.65 274.38-9.25 274.38-10.1L274.38-10.1Q273.18-10.1 272.31-10.55 271.43-11 271.03-11.68 270.63-12.35 270.63-13.15L270.63-13.15Q270.63-14.95 271.58-15.85 272.53-16.75 274.83-16.75L274.83-16.75 280.88-16.75Q283.78-16.75 285.38-15.5 286.98-14.25 286.98-11.1L286.98-11.1Q286.98-6.5 282.58-3.08 278.18 0.35 272.13 0.35L272.13 0.35Q266.58 0.35 262.26-1.65 257.93-3.65 255.41-7.63 252.88-11.6 252.88-17.05L252.88-17.05Q252.88-25.15 257.78-29.85 262.68-34.55 270.78-34.55L270.78-34.55Q273.98-34.55 276.53-34.08 279.08-33.6 280.76-32.8 282.43-32 283.56-30.88 284.68-29.75 285.16-28.5 285.63-27.25 285.63-25.9L285.63-25.9Q285.63-24.95 285.33-24.08 285.03-23.2 284.26-22.33 283.48-21.45 281.88-20.9 280.28-20.35 278.03-20.35L278.03-20.35Q274.73-20.35 273.83-21.33 272.93-22.3 272.93-25.85Z" opacity="1" transform="matrix(1,0,0,1,0,0)" fill="black" class="wordmark-text-0" id="SvgjsPath1176" stroke-width="5" stroke="black" stroke-linejoin="round"></path></svg></g></svg></g></svg></g></svg></g></svg></g></svg></g></svg></g></mask><g mask="url(#5d31c0c7-3e27-4421-9088-664cf459a4e1)"><g><path xmlns="http://www.w3.org/2000/svg" d="M240.163 62.432v130.637c0 13.713-1.684 24.588-5.052 32.623-3.368 8.084-7.987 13.689-13.858 16.817-5.918 3.128-13.689 4.691-23.313 4.691v0c-14.194 0-24.467-3.801-30.818-11.404-6.4-7.554-9.72-20.955-9.961-40.201v0l-0.721-133.163h-30.675c-15.157 0-26.512-2.406-34.066-7.218-7.602-4.812-11.404-13.352-11.404-25.622v0c0-7.458 1.516-13.352 4.547-17.683 2.983-4.331 7.482-7.41 13.497-9.239 6.015-1.78 14.074-2.67 24.178-2.67v0h154.455c13.473 0 23.216 2.406 29.231 7.218 6.015 4.812 9.022 13.112 9.022 24.9v0c0 7.939-1.756 14.122-5.269 18.549-3.464 4.475-8.084 7.554-13.857 9.238-5.774 1.684-13.232 2.526-22.375 2.527v0z" fill="#130912" fill-rule="nonzero" stroke="none" stroke-width="1" stroke-linecap="butt" stroke-linejoin="miter" stroke-miterlimit="10" stroke-dasharray="" stroke-dashoffset="0" font-family="none" font-weight="none" font-size="none" text-anchor="none" style="mix-blend-mode: normal" data-fill-palette-color="tertiary"></path></g></g><g transform="matrix(1,0,0,1,0,96.34866517009151)"><svg viewBox="0 0 395.52 54.502669659816966" height="54.502669659816966" width="395.52"><g><svg viewBox="0 0 395.52 54.502669659816966" height="54.502669659816966" width="395.52"><g><svg viewBox="0 0 395.52 54.502669659816966" height="54.502669659816966" width="395.52"><g><svg viewBox="0 0 395.52 54.502669659816966" height="54.502669659816966" width="395.52"><g id="textblocktransform"><svg viewBox="0 0 395.52 54.502669659816966" height="54.502669659816966" width="395.52" id="textblock"><g><svg viewBox="0 0 395.52 54.502669659816966" height="54.502669659816966" width="395.52"><g transform="matrix(1,0,0,1,0,0)"><svg width="395.52" viewBox="-0.5499999523162842 -37.54999923706055 290.5299987792969 40.89999771118164" height="54.502669659816966" data-palette-color="#130912"><path d="M24.6-25.6L24.6-7.5Q24.6-4.65 23.9-2.98 23.2-1.3 21.98-0.65 20.75 0 18.75 0L18.75 0Q15.8 0 14.48-1.58 13.15-3.15 13.1-7.15L13.1-7.15 13-25.6 8.75-25.6Q5.6-25.6 4.03-26.6 2.45-27.6 2.45-30.15L2.45-30.15Q2.45-31.7 3.08-32.6 3.7-33.5 4.95-33.88 6.2-34.25 8.3-34.25L8.3-34.25 29.7-34.25Q32.5-34.25 33.75-33.25 35-32.25 35-29.8L35-29.8Q35-28.15 34.27-27.23 33.55-26.3 32.35-25.95 31.15-25.6 29.25-25.6L29.25-25.6 24.6-25.6ZM51.8-20.3L60.4-20.3Q63.05-20.3 64.12-19.45 65.2-18.6 65.2-16.55L65.2-16.55Q65.2-14.85 63.92-14.13 62.65-13.4 59.95-13.4L59.95-13.4 51.85-13.4 51.85-8.1 62.7-8.05Q65.5-8.05 66.72-7.23 67.95-6.4 67.95-4.3L67.95-4.3Q67.95-1.9 66.52-0.95 65.1 0 62.2 0L62.2 0 46 0Q43.05 0 41.67-1.58 40.3-3.15 40.3-7.15L40.3-7.15 40.3-28.25Q40.3-34.25 46-34.25L46-34.25 62.2-34.25Q65.1-34.25 66.52-33.35 67.95-32.45 67.95-30.1L67.95-30.1Q67.95-27.9 66.72-27.03 65.5-26.15 62.7-26.15L62.7-26.15 51.8-26.15 51.8-20.3ZM92.05-24.85L92.05-24.85Q92.05-25.9 91.17-26.65 90.3-27.4 89.1-27.4L89.1-27.4Q86.7-27.4 85.15-24.68 83.6-21.95 83.6-18.5L83.6-18.5Q83.6-15.85 84.6-13.73 85.6-11.6 87.5-10.35 89.4-9.1 91.9-9.1L91.9-9.1Q93.75-9.1 95.45-9.83 97.15-10.55 98.2-11.43 99.25-12.3 100.37-13.03 101.5-13.75 102.35-13.75L102.35-13.75Q103.45-13.75 104.25-12.88 105.05-12 105.05-11.05L105.05-11.05Q105.05-10 104.42-8.6 103.8-7.2 102.45-5.63 101.1-4.05 99.3-2.73 97.5-1.4 94.82-0.53 92.15 0.35 89.2 0.35L89.2 0.35Q85.3 0.35 81.97-0.83 78.65-2 76.2-4.17 73.75-6.35 72.35-9.65 70.95-12.95 70.95-17.05L70.95-17.05Q70.95-25.15 75.8-29.85 80.65-34.55 88.5-34.55L88.5-34.55Q92.5-34.55 95.9-33.2 99.3-31.85 101.3-29.45 103.3-27.05 103.3-24.2L103.3-24.2Q103.3-20.9 101.1-18.23 98.9-15.55 95.4-15.55L95.4-15.55Q93.4-15.55 91.8-16.65 90.2-17.75 90.2-19.8L90.2-19.8Q90.2-20.75 91.12-22.45 92.05-24.15 92.05-24.85ZM143.69-28.7L143.69-7.5Q143.69-3.45 142.24-1.73 140.79 0 137.84 0L137.84 0Q134.94 0 133.59-1.58 132.24-3.15 132.24-7.15L132.24-7.15 132.19-12.8 121.99-12.8 121.99-7.5Q121.99-3.4 120.59-1.7 119.19 0 116.14 0L116.14 0Q113.24 0 111.89-1.58 110.54-3.15 110.54-7.15L110.54-7.15 110.39-28.25Q110.39-31.35 111.97-32.8 113.54-34.25 116.14-34.25L116.14-34.25Q119.14-34.25 120.57-33.15 121.99-32.05 121.99-28.7L121.99-28.7 121.99-20.3 132.14-20.3 132.14-28.25Q132.14-30.35 132.92-31.73 133.69-33.1 134.92-33.68 136.14-34.25 137.84-34.25L137.84-34.25Q140.74-34.25 142.22-33.15 143.69-32.05 143.69-28.7L143.69-28.7ZM168.79-24.6L168.79-24.6Q168.79-26.7 167.17-27.48 165.54-28.25 161.74-28.25L161.74-28.25 161.74-20.6Q164.09-20.6 165.57-20.95 167.04-21.3 167.92-22.18 168.79-23.05 168.79-24.6ZM169.44-11.25L169.44-11.25Q169.44-12.9 168.59-13.8 167.74-14.7 166.14-15.08 164.54-15.45 161.74-15.45L161.74-15.45 161.74-6.8Q165.64-6.8 167.54-7.78 169.44-8.75 169.44-11.25ZM175.59-17.8L175.59-17.8Q180.24-15.05 180.24-10.45L180.24-10.45Q180.24-8.45 179.47-6.63 178.69-4.8 177.17-3.3 175.64-1.8 173.14-0.93 170.64-0.05 167.49-0.05L167.49-0.05 155.89-0.05Q152.84-0.05 151.52-1.6 150.19-3.15 150.19-7.15L150.19-7.15 150.19-28.3Q150.19-30 150.79-31.3 151.39-32.6 152.72-33.4 154.04-34.2 155.89-34.2L155.89-34.2 167.34-34.2Q172.34-34.15 175.67-31.48 178.99-28.8 178.99-24.6L178.99-24.6Q178.99-23.25 178.77-22.23 178.54-21.2 178.09-20.4 177.64-19.6 177.04-19 176.44-18.4 175.59-17.8ZM205.84 0L192.79 0Q190.49-0.05 189.09-0.73 187.69-1.4 186.99-2.95 186.29-4.5 186.29-7.1L186.29-7.1 186.29-28.25Q186.29-30.9 187.84-32.58 189.39-34.25 191.94-34.25L191.94-34.25Q194.94-34.25 196.36-33.15 197.79-32.05 197.79-28.7L197.79-28.7 197.79-8.65 206.34-8.65Q209.24-8.65 210.41-7.8 211.59-6.95 211.59-4.3L211.59-4.3Q211.59-1.6 210.24-0.8 208.89 0 205.84 0L205.84 0ZM230.19-7L230.19-7Q231.89-7 233.11-8.5 234.34-10 234.86-12.2 235.39-14.4 235.39-16.9L235.39-16.9Q235.39-19.45 234.84-21.73 234.29-24 233.06-25.6 231.84-27.2 230.19-27.2L230.19-27.2Q228.59-27.2 227.39-25.6 226.19-24 225.59-21.7 224.99-19.4 224.99-16.9L224.99-16.9Q224.99-14.4 225.56-12.2 226.14-10 227.36-8.5 228.59-7 230.19-7ZM239.04-1.68Q235.09 0.3 230.16 0.3 225.24 0.3 221.31-1.68 217.39-3.65 215.04-7.6 212.69-11.55 212.69-16.9L212.69-16.9Q212.69-25 217.56-29.78 222.44-34.55 230.19-34.55 237.94-34.55 242.84-29.78 247.74-25 247.74-16.9L247.74-16.9Q247.74-11.55 245.36-7.6 242.99-3.65 239.04-1.68ZM272.93-25.85L272.93-25.85Q272.93-27.4 270.88-27.4L270.88-27.4Q268.78-27.4 267.28-25.05 265.78-22.7 265.78-17.2L265.78-17.2Q265.78-12.1 267.51-9.78 269.23-7.45 271.58-7.45L271.58-7.45Q272.33-7.45 272.96-7.75 273.58-8.05 273.98-8.65 274.38-9.25 274.38-10.1L274.38-10.1Q273.18-10.1 272.31-10.55 271.43-11 271.03-11.68 270.63-12.35 270.63-13.15L270.63-13.15Q270.63-14.95 271.58-15.85 272.53-16.75 274.83-16.75L274.83-16.75 280.88-16.75Q283.78-16.75 285.38-15.5 286.98-14.25 286.98-11.1L286.98-11.1Q286.98-6.5 282.58-3.08 278.18 0.35 272.13 0.35L272.13 0.35Q266.58 0.35 262.26-1.65 257.93-3.65 255.41-7.63 252.88-11.6 252.88-17.05L252.88-17.05Q252.88-25.15 257.78-29.85 262.68-34.55 270.78-34.55L270.78-34.55Q273.98-34.55 276.53-34.08 279.08-33.6 280.76-32.8 282.43-32 283.56-30.88 284.68-29.75 285.16-28.5 285.63-27.25 285.63-25.9L285.63-25.9Q285.63-24.95 285.33-24.08 285.03-23.2 284.26-22.33 283.48-21.45 281.88-20.9 280.28-20.35 278.03-20.35L278.03-20.35Q274.73-20.35 273.83-21.33 272.93-22.3 272.93-25.85Z" opacity="1" transform="matrix(1,0,0,1,0,0)" fill="#130912" class="wordmark-text-0" data-fill-palette-color="primary" id="text-0"></path></svg></g></svg></g></svg></g></svg></g></svg></g></svg></g></svg></g></svg></g><defs></defs></svg><rect width="395.52" height="247.2" fill="none" stroke="none" visibility="hidden"></rect></g></svg></g></svg>